<svg width="60" height="50" viewBox="0 0 60 50" fill="none" xmlns="http://www.w3.org/2000/svg">
<g clip-path="url(#clip0)">
<path d="M57.1212 38.856C57.286 38.8876 57.4554 38.8864 57.6197 38.8524C57.784 38.8183 57.94 38.7522 58.0787 38.6578C58.2174 38.5633 58.3361 38.4424 58.4279 38.302C58.5198 38.1616 58.583 38.0045 58.614 37.8396L59.6869 32.2171C59.749 31.8861 59.6774 31.5441 59.4876 31.2659C59.2979 30.9877 59.0056 30.7961 58.6749 30.7332L56.5039 30.3191C56.4011 29.1307 56.1575 27.9586 55.7783 26.8275L57.6079 25.584C57.7463 25.4903 57.8648 25.3701 57.9566 25.2305C58.0485 25.091 58.112 24.9346 58.1434 24.7705C58.1748 24.6063 58.1736 24.4376 58.1398 24.274C58.1059 24.1103 58.0402 23.9549 57.9463 23.8167L54.7277 19.0801C54.5378 18.8013 54.2451 18.6092 53.9137 18.5461C53.5824 18.4829 53.2395 18.5538 52.9604 18.7432L51.1292 19.9868C50.2178 19.2176 49.218 18.5595 48.151 18.0265L48.5651 15.8556C48.6264 15.5247 48.5544 15.1831 48.3648 14.9051C48.1752 14.6271 47.8834 14.4354 47.553 14.3717L41.9291 13.2988C41.5981 13.2367 41.2561 13.3083 40.9779 13.4981C40.6997 13.6878 40.5081 13.9801 40.4452 14.3108L40.0237 16.4714C38.8351 16.5734 37.663 16.817 36.5321 17.197L35.2886 15.3674C35.1947 15.229 35.0745 15.1105 34.9347 15.0186C34.795 14.9267 34.6386 14.8632 34.4743 14.8318C34.31 14.8004 34.1412 14.8016 33.9774 14.8355C33.8137 14.8693 33.6581 14.9351 33.5198 15.029L28.7876 18.2521C28.6494 18.346 28.5311 18.4662 28.4393 18.6058C28.3476 18.7455 28.2843 18.9018 28.253 19.0659C28.2217 19.2301 28.2231 19.3987 28.257 19.5623C28.291 19.7259 28.3568 19.8813 28.4508 20.0194L29.6943 21.849C28.9251 22.7611 28.2671 23.7613 27.7341 24.8287L25.5631 24.4147C25.2322 24.3526 24.8901 24.4242 24.612 24.614C24.3338 24.8037 24.1422 25.096 24.0792 25.4267L23.0004 31.0507C22.9383 31.3814 23.0097 31.7233 23.1991 32.0014C23.3886 32.2796 23.6805 32.4713 24.011 32.5346L26.1819 32.9486C26.2845 34.1373 26.5285 35.3095 26.909 36.4402L25.0779 37.6912C24.9397 37.785 24.8213 37.9052 24.7296 38.0449C24.6379 38.1845 24.5745 38.3409 24.5433 38.505C24.512 38.6692 24.5133 38.8378 24.5473 39.0014C24.5812 39.165 24.6471 39.3203 24.7411 39.4585L27.9567 44.1906C28.0503 44.3294 28.1705 44.4481 28.3103 44.5401C28.4502 44.632 28.6069 44.6953 28.7713 44.7263C29.1029 44.7883 29.4457 44.7175 29.7255 44.529L31.5551 43.2855C32.4671 44.0547 33.4674 44.7127 34.5348 45.2457L34.1208 47.4166C34.0587 47.7476 34.1303 48.0896 34.32 48.3678C34.5097 48.646 34.802 48.8376 35.1328 48.9005L40.7553 49.9734C40.8346 49.9882 40.915 49.9956 40.9957 49.9957C41.2922 49.9951 41.5791 49.8911 41.807 49.7014C42.0349 49.5117 42.1893 49.2484 42.2436 48.9569L42.6577 46.786C43.8459 46.6866 45.018 46.446 46.1493 46.0693L47.3928 47.9004C47.4867 48.0386 47.6069 48.157 47.7465 48.2487C47.8862 48.3404 48.0425 48.4038 48.2066 48.435C48.3708 48.4663 48.5394 48.465 48.703 48.431C48.8666 48.3971 49.022 48.3312 49.1601 48.2372L53.8952 45.0201C54.1744 44.8302 54.3668 44.5373 54.4302 44.2057C54.4936 43.8741 54.4229 43.5309 54.2336 43.2513L52.9886 41.4217C53.7579 40.5095 54.4164 39.5093 54.9503 38.442L57.1212 38.856ZM53.0346 36.5159C52.4294 37.969 51.5566 39.2954 50.4615 40.426C50.258 40.6361 50.1332 40.9099 50.1081 41.2013C50.083 41.4927 50.159 41.7838 50.3235 42.0256L51.4141 43.6268L48.7847 45.4074L47.694 43.8033C47.5297 43.5617 47.2872 43.3839 47.0072 43.2998C46.7273 43.2158 46.427 43.2306 46.1567 43.3419C44.7022 43.9446 43.1471 44.2678 41.5729 44.2945C41.2799 44.3 40.9978 44.4063 40.774 44.5955C40.5502 44.7847 40.3984 45.0453 40.3443 45.3332L39.9822 47.2341L36.866 46.6406L37.2281 44.7382C37.2828 44.4511 37.237 44.1539 37.0984 43.8966C36.9598 43.6394 36.7367 43.4377 36.4668 43.3255C35.013 42.721 33.6861 41.8481 32.5553 40.7525C32.3452 40.549 32.0714 40.4242 31.78 40.3991C31.4886 40.3739 31.1975 40.45 30.9556 40.6144L29.353 41.7051L27.5723 39.0756L29.1749 37.9865C29.4169 37.8223 29.5948 37.5798 29.6789 37.2998C29.7629 37.0198 29.7479 36.7194 29.6364 36.4491C29.0351 34.9943 28.7125 33.4394 28.6853 31.8654C28.68 31.5723 28.5738 31.29 28.3846 31.0662C28.1953 30.8423 27.9346 30.6906 27.6465 30.6367L25.7382 30.2717L26.3318 27.1555L28.2327 27.5175C28.52 27.5724 28.8174 27.5267 29.0749 27.388C29.3325 27.2494 29.5344 27.0263 29.6468 26.7563C30.2525 25.3049 31.1259 23.9805 32.2214 22.8522C32.4243 22.6417 32.5487 22.3679 32.5736 22.0766C32.5984 21.7853 32.5223 21.4943 32.3579 21.2525L31.2687 19.6484L33.8982 17.8677L34.9874 19.4704C35.1521 19.7116 35.3946 19.8891 35.6744 19.9731C35.9542 20.057 36.2543 20.0425 36.5247 19.9319C37.977 19.3256 39.5305 18.9984 41.104 18.9673C41.3971 18.9621 41.6794 18.8559 41.9032 18.6666C42.1271 18.4774 42.2787 18.2167 42.3327 17.9286L42.6992 16.0262L45.8228 16.6198L45.4607 18.5221C45.4056 18.8091 45.451 19.1062 45.5894 19.3636C45.7278 19.6209 45.9507 19.8227 46.2205 19.9348C47.6742 20.5396 49.0011 21.4124 50.1321 22.5079C50.3422 22.7113 50.616 22.8361 50.9073 22.8613C51.1987 22.8864 51.4899 22.8103 51.7317 22.6459L53.3343 21.5552L55.115 24.1847L53.5124 25.2739C53.2705 25.438 53.0925 25.6805 53.0085 25.9605C52.9244 26.2405 52.9394 26.541 53.0509 26.8112C53.6574 28.2675 53.9841 29.8251 54.0139 31.4024C54.0192 31.6955 54.1254 31.9778 54.3146 32.2016C54.5039 32.4254 54.7645 32.5771 55.0527 32.6311L56.9535 32.9946L56.36 36.1108L54.4472 35.7621C54.161 35.7062 53.8643 35.7507 53.607 35.888C53.3497 36.0253 53.1475 36.247 53.0346 36.5159Z" fill="#BB1CFF"/>
<path d="M43.0553 22.6503C40.6724 22.1958 38.2064 22.7065 36.2 24.0701C34.1936 25.4337 32.811 27.5385 32.3564 29.9214C31.9019 32.3044 32.4126 34.7704 33.7762 36.7768C35.1398 38.7832 37.2446 40.1658 39.6275 40.6204C40.1938 40.7298 40.7692 40.7849 41.3459 40.7851C43.6231 40.7846 45.8183 39.9349 47.5023 38.402C49.1863 36.8691 50.2381 34.7633 50.452 32.4961C50.6658 30.229 50.0265 27.9636 48.6589 26.1427C47.2913 24.3219 45.2938 23.0766 43.0568 22.6503H43.0553ZM47.8261 32.8729C47.4977 34.5915 46.5006 36.1094 45.0538 37.0933C43.607 38.0771 41.8287 38.4464 40.1098 38.12C38.4967 37.8119 37.0563 36.9139 36.0696 35.601C35.083 34.2882 34.621 32.6548 34.7737 31.0197C34.9265 29.3845 35.683 27.865 36.8957 26.7576C38.1084 25.6502 39.6903 25.0345 41.3325 25.0305C42.305 25.0312 43.2654 25.2461 44.1453 25.6601C45.0253 26.0741 45.8032 26.6768 46.4237 27.4256C47.0442 28.1743 47.4921 29.0506 47.7356 29.9921C47.979 30.9337 48.0119 31.9172 47.832 32.8729H47.8261Z" fill="#BB1CFF"/>
<path d="M0.62175 17.8677C0.639574 17.992 0.681695 18.1115 0.745707 18.2194C0.809718 18.3274 0.894367 18.4217 0.994819 18.4969C1.09527 18.5721 1.20956 18.6268 1.33116 18.6579C1.45276 18.689 1.57928 18.6958 1.70351 18.6779L3.34767 18.442C3.7115 19.2616 4.17126 20.0352 4.71731 20.7465L3.72013 22.082C3.56938 22.285 3.50506 22.5393 3.5412 22.7895C3.57735 23.0398 3.71102 23.2655 3.91304 23.4175L7.35717 25.9965C7.55999 26.1477 7.81445 26.2122 8.06479 26.1761C8.31513 26.1399 8.54092 26.006 8.69268 25.8036L9.68986 24.4681C10.5259 24.7923 11.3977 25.0155 12.2867 25.1329L12.5226 26.7771C12.5552 27.0057 12.6692 27.2149 12.8436 27.3663C13.0181 27.5176 13.2414 27.6008 13.4723 27.6006C13.518 27.6001 13.5636 27.5967 13.6088 27.5902L17.8676 26.9789C17.9921 26.9613 18.1118 26.9192 18.22 26.8552C18.3282 26.7911 18.4226 26.7063 18.4979 26.6056C18.5732 26.505 18.6278 26.3904 18.6587 26.2686C18.6896 26.1468 18.6961 26.02 18.6778 25.8956L18.4419 24.2515C19.2621 23.8888 20.0358 23.429 20.7464 22.8818L22.0819 23.879C22.2844 24.0307 22.5389 24.0957 22.7893 24.0598C23.0397 24.0239 23.2657 23.89 23.4174 23.6876L25.9964 20.2435C26.1477 20.0408 26.2125 19.7865 26.1766 19.5362C26.1408 19.2858 26.0071 19.0599 25.805 18.908L24.4695 17.9108C24.7935 17.0745 25.0171 16.2028 25.1358 15.3139L26.7799 15.078C27.031 15.0416 27.2573 14.9071 27.4092 14.704C27.5611 14.5009 27.6262 14.2458 27.5901 13.9948L26.9788 9.73597C26.9611 9.6116 26.9191 9.49194 26.8552 9.38382C26.7913 9.2757 26.7066 9.18124 26.6062 9.10585C26.5057 9.03047 26.3914 8.97563 26.2697 8.94447C26.148 8.91331 26.0214 8.90645 25.897 8.92427L24.2529 9.16021C23.889 8.3406 23.4293 7.56703 22.8832 6.85572L23.8804 5.52021C24.0319 5.31689 24.097 5.06196 24.0614 4.8109C24.0437 4.68656 24.0015 4.56695 23.9373 4.45897C23.8731 4.35099 23.7882 4.25677 23.6875 4.18173L20.2463 1.60568C20.0432 1.45532 19.789 1.39123 19.5389 1.42735C19.2888 1.46348 19.0631 1.5969 18.9108 1.79859L17.9136 3.1341C17.0776 2.80993 16.2058 2.58675 15.3168 2.46931L15.0779 0.820698C15.0415 0.569585 14.9071 0.343135 14.704 0.190983C14.501 0.0388317 14.2459 -0.0266088 13.9947 0.00900508L9.73586 0.620372C9.48485 0.656728 9.25852 0.791233 9.10661 0.994343C8.95469 1.19745 8.88961 1.45256 8.92565 1.70362L9.16159 3.34778C8.34179 3.71125 7.56818 4.17104 6.8571 4.71742L5.52159 3.72024C5.4213 3.64502 5.30716 3.59034 5.1857 3.55932C5.06424 3.52831 4.93786 3.52157 4.81379 3.53949C4.68972 3.55741 4.57041 3.59964 4.4627 3.66376C4.35498 3.72788 4.26098 3.81263 4.18608 3.91315L1.60706 7.35579C1.45631 7.55875 1.39199 7.81311 1.42813 8.06332C1.46427 8.31354 1.59795 8.5393 1.79997 8.6913L3.13548 9.687C2.81186 10.5233 2.58822 11.395 2.4692 12.2838L0.820593 12.5242C0.569575 12.5606 0.343252 12.6951 0.191337 12.8982C0.0394226 13.1013 -0.0256608 13.3564 0.0103834 13.6075L0.62175 17.8677ZM3.47974 14.0764C3.69769 14.0445 3.89804 13.9386 4.04718 13.7765C4.19632 13.6143 4.28518 13.4059 4.29885 13.186C4.37253 12.0036 4.66854 10.8457 5.17139 9.77306C5.26428 9.57358 5.28548 9.34814 5.23141 9.13484C5.17734 8.92153 5.05131 8.73341 4.87461 8.60227L3.70975 7.73715L5.14171 5.82441L6.30805 6.69842C6.48388 6.82991 6.69956 6.89694 6.91894 6.8883C7.13831 6.87965 7.34805 6.79585 7.51298 6.65094C8.3989 5.86763 9.42431 5.25802 10.5357 4.85394C10.7429 4.7787 10.9177 4.63426 11.0308 4.445C11.1438 4.25575 11.188 4.03329 11.156 3.81521L10.9556 2.37434L13.3195 2.03453L13.5272 3.47539C13.5587 3.69341 13.6645 3.89388 13.8267 4.04287C13.9889 4.19186 14.1977 4.28023 14.4176 4.29302C15.6001 4.3672 16.7579 4.66372 17.8305 5.16704C18.0301 5.25937 18.2554 5.28027 18.4686 5.22624C18.6817 5.1722 18.8698 5.04652 19.0013 4.87026L19.8664 3.70985L21.7777 5.14181L20.9052 6.30816C20.7734 6.48387 20.7062 6.69961 20.7149 6.91906C20.7235 7.13851 20.8075 7.34828 20.9527 7.51309C21.7354 8.39944 22.3449 9.42473 22.7497 10.5358C22.8249 10.7431 22.9692 10.9181 23.1585 11.0314C23.3477 11.1446 23.5702 11.1892 23.7884 11.1575L25.2263 10.9557L25.5646 13.3196L24.1252 13.5258C23.9073 13.5576 23.707 13.6634 23.5581 13.8256C23.4091 13.9878 23.3207 14.1964 23.3076 14.4162C23.2326 15.5985 22.9361 16.7563 22.4336 17.8292C22.341 18.0287 22.3199 18.254 22.374 18.4673C22.428 18.6805 22.5539 18.8686 22.7304 19L23.8952 19.8725L22.4633 21.7852L21.2969 20.9112C21.1211 20.7797 20.9054 20.7127 20.686 20.7213C20.4667 20.73 20.2569 20.8138 20.092 20.9587C19.2045 21.7404 18.1775 22.3475 17.0648 22.7483C16.8578 22.8238 16.6831 22.9682 16.5701 23.1574C16.4572 23.3466 16.4128 23.569 16.4446 23.787L16.6508 25.2264L14.287 25.5662L14.0792 24.1268C14.0478 23.9087 13.9421 23.708 13.7799 23.5588C13.6177 23.4095 13.4089 23.3208 13.1889 23.3077C12.0063 23.2342 10.8483 22.9377 9.77593 22.4337C9.6488 22.3754 9.51066 22.3451 9.37082 22.3447C9.22276 22.3447 9.0767 22.379 8.94411 22.4449C8.81152 22.5108 8.696 22.6065 8.60661 22.7245L7.73853 23.8909L5.82579 22.4589L6.69832 21.2926C6.83018 21.1166 6.89744 20.9006 6.88879 20.6809C6.88015 20.4612 6.79612 20.2512 6.65083 20.0862C5.86754 19.2008 5.25792 18.1759 4.85383 17.0649C4.7786 16.8578 4.63415 16.6829 4.4449 16.5699C4.25565 16.4569 4.03319 16.4126 3.8151 16.4447L2.37424 16.648L2.04036 14.2826L3.47974 14.0764Z" fill="#BB1CFF"/>
<path d="M13.8003 20.6767C15.2022 20.677 16.5706 20.2488 17.7223 19.4495C18.874 18.6502 19.7539 17.5179 20.244 16.2045C20.7342 14.8911 20.8112 13.4592 20.4647 12.1008C20.1182 10.7424 19.3648 9.5224 18.3055 8.6042C17.2461 7.68599 15.9315 7.11351 14.5376 6.96346C13.1438 6.81341 11.7374 7.09296 10.5069 7.76466C9.27639 8.43636 8.28059 9.4681 7.65293 10.7216C7.02527 11.9752 6.79575 13.3906 6.99511 14.7782C7.23004 16.4156 8.04747 17.9134 9.29744 18.9969C10.5474 20.0803 12.1461 20.6767 13.8003 20.6767ZM13.0969 8.88864C14.0683 8.74925 15.0592 8.90103 15.9444 9.3248C16.8296 9.74856 17.5692 10.4253 18.0698 11.2694C18.5703 12.1134 18.8094 13.087 18.7567 14.067C18.704 15.0469 18.3619 15.9892 17.7737 16.7748C17.1855 17.5603 16.3775 18.1538 15.452 18.4802C14.5265 18.8066 13.525 18.8512 12.5742 18.6084C11.6233 18.3657 10.7658 17.8464 10.11 17.1163C9.45427 16.3862 9.02971 15.4781 8.89005 14.5067C8.70838 13.2047 9.04858 11.8836 9.83655 10.8313C10.6245 9.77905 11.7964 9.08077 13.0969 8.88864Z" fill="#BB1CFF"/>
</g>
<defs>
<clipPath id="clip0">
<rect width="59.7062" height="50" fill="white"/>
</clipPath>
</defs>
</svg>
