<svg width="50" height="50" viewBox="0 0 50 50" fill="none" xmlns="http://www.w3.org/2000/svg">
<path d="M23.6627 49.9928L26.0638 50C32.5047 49.7241 38.5902 46.97 43.0502 42.3124C47.5102 37.6549 50 31.4538 50 25.0036C50 18.5533 47.5102 12.3523 43.0502 7.69471C38.5902 3.03717 32.5047 0.283035 26.0638 0.00715451L23.6841 0C23.676 0.00441514 23.6683 0.00969181 23.6612 0.0157399C17.2709 0.361393 11.256 3.14481 6.85459 7.79315C2.45315 12.4415 0 18.6011 0 25.0043C0 31.4075 2.45315 37.5671 6.85459 42.2154C11.256 46.8638 17.2709 49.6472 23.6612 49.9928H23.6627ZM8.55773 41.1814C10.1547 40.0234 11.8694 39.0373 13.6733 38.2394C15.3938 41.8367 17.8152 45.0538 20.7953 47.702C16.1459 46.8308 11.875 44.5551 8.55773 41.1814ZM24.0331 47.8579C20.3999 45.1391 17.4659 41.5938 15.4738 37.5154C18.2244 36.5178 21.1103 35.9437 24.0331 35.8126V47.8579ZM24.0331 33.8795C20.8417 34.0112 17.6901 34.6387 14.6915 35.7396C13.5463 32.8842 12.8702 29.8622 12.6893 26.7908H24.0273L24.0331 33.8795ZM24.0331 24.8533L12.6336 24.8605C12.6437 21.7082 13.1698 18.5789 14.191 15.5968C17.3329 16.8349 20.6593 17.5399 24.0331 17.6831V24.8533ZM28.8769 47.7621C31.9884 45.0175 34.4951 41.6551 36.2377 37.8888C38.178 38.6757 40.0239 39.6778 41.7408 40.8766C38.3102 44.5036 33.7964 46.9197 28.8769 47.7621ZM43.0194 39.4156C41.1415 38.0834 39.1159 36.9733 36.9828 36.1074C38.1343 33.1226 38.8099 29.9754 38.985 26.7808H48.0133C47.6653 31.4013 45.9233 35.8073 43.0179 39.4156H43.0194ZM43.7416 11.5459C46.5393 15.4156 48.056 20.0645 48.0791 24.8405H39.0379C39.0247 21.5688 38.4912 18.3201 37.4576 15.2162C39.6905 14.2478 41.7997 13.0156 43.7401 11.5459H43.7416ZM42.5474 10.0235C40.7649 11.3696 38.8311 12.5025 36.7855 13.399C35.0341 9.1261 32.3289 5.31079 28.8769 2.24508C34.2062 3.1475 39.0465 5.9019 42.546 10.0235H42.5474ZM25.9666 2.3524C29.9612 5.40467 33.0739 9.46371 34.9864 14.1144C32.0892 15.1519 29.0431 15.7129 25.9666 15.7757V2.3524ZM25.9666 17.7131C29.2704 17.6494 32.5416 17.0467 35.6514 15.9288C36.5992 18.8068 37.0886 21.816 37.1015 24.8462L25.9666 24.8533V17.7131ZM25.9666 26.7865H37.0414C36.8701 29.7495 36.2385 32.6678 35.1694 35.4363C32.2009 34.4463 29.0994 33.9132 25.9709 33.8551L25.9666 26.7865ZM25.9666 35.7883C28.8345 35.8438 31.6782 36.3261 34.4043 37.2192C32.4606 41.3188 29.5681 44.8957 25.9666 47.6533V35.7883ZM24.0331 2.14635V15.7485C20.8951 15.6059 17.8023 14.9444 14.8803 13.791C16.8501 9.16896 20.008 5.15122 24.0331 2.14635ZM20.7981 2.30232C17.4805 5.26741 14.8561 8.92701 13.1112 13.0212C11.2055 12.1144 9.40637 10.9986 7.74685 9.69436C11.1517 5.84365 15.7457 3.24268 20.7981 2.30518V2.30232ZM6.5241 11.1925C8.34022 12.6259 10.3142 13.8467 12.4076 14.8313C11.2861 18.0564 10.709 21.4458 10.7 24.8605H1.9234C1.94082 19.9268 3.55493 15.1315 6.5241 11.1925ZM1.99061 26.7994H10.753C10.9359 30.1191 11.6606 33.3866 12.8981 36.4723C10.9041 37.3543 9.01225 38.4516 7.25632 39.7447C4.19182 36.0864 2.35029 31.5591 1.99061 26.7994Z" fill="#BB1CFF"/>
</svg>
