<svg width="190" height="164" viewBox="0 0 190 164" fill="none" xmlns="http://www.w3.org/2000/svg">
<path d="M189.544 6.39716C188.306 3.00473 185.944 0.903357 182.384 0.193853C182.204 0.142675 182.028 0.0778708 181.857 0L8.14286 0C7.56122 0.15896 6.96602 0.284965 6.39796 0.484634C3.10204 1.64775 1.03401 3.92747 0.193878 7.32378C0.149286 7.53508 0.0678571 7.74057 0 7.94799V118.251C0.157041 118.766 0.30051 119.288 0.473061 119.801C1.04585 121.528 2.12061 123.046 3.56002 124.159C4.99942 125.272 6.7381 125.931 8.55388 126.051C9.16459 126.094 9.77918 126.113 10.3918 126.113C30.9041 126.113 51.4157 126.113 71.9266 126.113H73.3167V146.941H72.169C64.2859 146.941 56.4048 146.927 48.5159 146.941C44.2933 146.953 40.9004 149.736 40.0687 153.797C39.6333 156.012 40.0937 158.309 41.3489 160.185C42.604 162.061 44.5517 163.363 46.7652 163.806C47.0134 163.853 47.2557 163.938 47.5 164H142.5C142.839 163.915 143.179 163.826 143.52 163.744C147.785 162.73 150.523 158.797 150.05 154.387C149.606 150.265 145.978 146.978 141.699 146.956C133.75 146.916 125.801 146.943 117.852 146.941H116.617V145.793C116.617 139.625 116.641 133.455 116.596 127.284C116.596 126.315 116.825 126.044 117.821 126.045C138.595 126.076 159.369 126.089 180.143 126.082C183.999 126.082 186.987 124.624 188.868 121.22C189.401 120.251 189.63 119.117 190 118.057V7.94799C189.849 7.4304 189.729 6.89924 189.544 6.39716ZM176.167 112.216H13.8448V13.8896H176.157L176.167 112.216Z" fill="#BB1CFF"/>
<path d="M109.868 35.2814C107.736 41.9422 105.562 48.5952 103.414 55.2483C99.3041 67.9831 95.1977 80.718 91.0953 93.4529C90.1259 96.4305 88.1619 98.0453 85.4728 98.0511C81.5139 98.0511 78.8403 94.4066 80.0656 90.5528C82.6946 82.2869 85.3759 74.0385 88.0378 65.7842C91.7099 54.4089 95.3877 43.0303 99.0714 31.6485C99.9884 28.8144 102.561 27.1899 105.336 27.6164C109.056 28.198 111.065 31.5671 109.868 35.2814Z" fill="#BB1CFF"/>
<path d="M149.734 62.9325C149.734 65.4526 148.603 67.2787 146.341 68.3372C137.399 72.5192 128.448 76.6813 119.489 80.8233C118.382 81.335 117.261 81.9244 116.082 82.157C114.736 82.4213 113.339 82.1764 112.163 81.4698C110.986 80.7632 110.114 79.6451 109.715 78.3323C109.279 76.9968 109.349 75.5474 109.912 74.2604C110.476 72.9733 111.493 71.9386 112.771 71.3535C118.199 68.8115 123.64 66.2823 129.093 63.7661C129.615 63.5238 130.129 63.2679 130.823 62.9345L114.306 55.2482C113.75 54.9904 113.188 54.7461 112.639 54.4728C111.291 53.8048 110.257 52.6365 109.759 51.2172C109.26 49.7979 109.335 48.24 109.969 46.8757C110.277 46.2057 110.715 45.6033 111.257 45.103C111.799 44.6027 112.434 44.2144 113.126 43.9604C113.819 43.7064 114.555 43.5917 115.291 43.6229C116.028 43.6542 116.752 43.8307 117.42 44.1423C127.114 48.6048 136.798 53.1029 146.473 57.6365C148.658 58.662 149.73 60.5036 149.734 62.9325Z" fill="#BB1CFF"/>
<path d="M78.6115 80.8602C76.7348 82.4672 74.6041 82.6824 72.3706 81.653C68.0646 79.6699 63.7702 77.6597 59.47 75.663C54.2624 73.2437 49.0549 70.8257 43.8473 68.409C41.5053 67.3253 40.2587 65.5322 40.2664 62.9307C40.2664 60.3757 41.4801 58.5845 43.7872 57.5028C53.2355 53.1088 62.6832 48.7147 72.1302 44.3207C75.302 42.8474 78.5844 43.8807 79.9706 46.7769C81.4034 49.7738 80.1645 53.1391 76.9907 54.6299C71.3004 57.307 65.5868 59.9376 59.883 62.5895C59.7085 62.6709 59.5379 62.7581 59.1656 62.9404L66.4263 66.3057C70.0557 67.9883 73.7122 69.6128 77.3067 71.3691C81.0408 73.203 81.7116 78.2063 78.6115 80.8602Z" fill="#BB1CFF"/>
</svg>
