<svg width="30" height="30" viewBox="0 0 30 30" fill="none" xmlns="http://www.w3.org/2000/svg">
<g clip-path="url(#clip0)">
<path d="M23.0591 5.2196C23.2946 5.21959 23.5278 5.26631 23.7452 5.35706C23.9626 5.44782 24.1598 5.5808 24.3255 5.74831C24.4911 5.91582 24.6219 6.11454 24.7103 6.33295C24.7987 6.55137 24.8428 6.78515 24.8403 7.02077C24.8328 7.49613 24.6407 7.94992 24.3046 8.2861C23.9686 8.62227 23.5149 8.81444 23.0397 8.82193C22.5621 8.82193 22.1042 8.63216 21.7665 8.29438C21.4288 7.9566 21.2391 7.49846 21.2391 7.02077C21.2391 6.54307 21.4288 6.08494 21.7665 5.74715C22.1042 5.40937 22.5621 5.2196 23.0397 5.2196H23.0591Z" fill="white"/>
<path d="M29.8161 7.53367C30.0388 9.89649 30.184 21.0908 29.487 23.6667C29.1475 25.2325 28.3263 26.6526 27.1387 27.7277C25.9511 28.8027 24.4568 29.4788 22.8655 29.6608C20.1185 29.9312 17.3582 30.0444 14.5983 29.9998C11.8125 30.0798 9.02479 29.9308 6.26335 29.5543C4.70265 29.2374 3.28302 28.4325 2.20943 27.2559C1.13584 26.0792 0.463842 24.5917 0.290455 23.0082C-0.116128 20.4807 -0.15485 8.71508 0.571191 6.16827C0.937492 4.6485 1.75989 3.27724 2.92796 2.23862C4.09602 1.20001 5.55381 0.543786 7.10556 0.358074C9.60246 0.0763403 12.115 -0.043342 14.6273 -0.000221543C17.425 -0.000221543 20.2517 0.0772478 21.9458 0.164401C23.9863 0.213549 25.9371 1.01341 27.425 2.41101C28.8301 3.76243 29.6824 5.5884 29.8161 7.53367ZM26.9119 22.5143C27.3208 17.6023 27.3855 12.6677 27.1056 7.74671C27.0436 6.55216 26.5586 5.41867 25.7373 4.54924C24.9161 3.67982 23.8122 3.13123 22.6235 3.00171C20.1327 2.77345 17.6315 2.67971 15.1307 2.72089C12.1394 2.72089 9.16751 2.79836 7.86064 2.94361C6.65978 3.01453 5.52201 3.50527 4.64613 4.33011C3.77024 5.15494 3.21194 6.26142 3.06877 7.4562C2.65779 12.495 2.62219 17.5574 2.96228 22.6015C3.06063 23.607 3.47098 24.5566 4.13585 25.3172C4.80072 26.0778 5.68679 26.6113 6.66993 26.8429C9.33965 27.2275 12.038 27.3765 14.7338 27.2884C17.88 27.2884 20.9681 27.1915 22.1298 27.0656C23.3457 27.0063 24.5007 26.5156 25.3877 25.6816C26.2747 24.8475 26.8357 23.7246 26.97 22.5143" fill="white"/>
<path d="M15.0629 7.31128C16.0745 7.31116 17.0761 7.51232 18.0092 7.90305C18.9424 8.29377 19.7885 8.86626 20.4984 9.58719C21.2083 10.3081 21.7678 11.1631 22.1442 12.1024C22.5207 13.0416 22.7066 14.0464 22.6912 15.0582C22.6759 17.1027 21.8532 19.0583 20.4025 20.4986C18.9518 21.9389 16.9907 22.7471 14.9468 22.747C13.9348 22.7485 12.9327 22.5482 11.9989 22.1579C11.0652 21.7677 10.2185 21.1952 9.50833 20.474C8.79818 19.7528 8.23878 18.8973 7.86279 17.9575C7.48681 17.0176 7.30177 16.0123 7.31849 15.0001C7.33382 12.9556 8.15651 11 9.60722 9.55972C11.0579 8.11943 13.019 7.31122 15.0629 7.31128ZM14.9564 19.9775C16.2699 19.9728 17.5295 19.4546 18.4664 18.5337C19.4032 17.6129 19.9432 16.3621 19.971 15.0485C19.9943 13.7403 19.4977 12.4763 18.5902 11.534C17.6827 10.5917 16.4385 10.0482 15.1307 10.0227H15.0823C13.7688 10.0275 12.5092 10.5456 11.5724 11.4665C10.6355 12.3874 10.0955 13.6381 10.0678 14.9517C10.0549 15.6038 10.1716 16.252 10.4111 16.8587C10.6505 17.4654 11.008 18.0185 11.4627 18.486C11.9174 18.9535 12.4604 19.3261 13.0601 19.5821C13.6598 19.8381 14.3044 19.9725 14.9564 19.9775Z" fill="white"/>
</g>
<defs>
<clipPath id="clip0">
<rect width="30" height="30" fill="white"/>
</clipPath>
</defs>
</svg>
