<svg width="30" height="30" viewBox="0 0 30 30" fill="none" xmlns="http://www.w3.org/2000/svg">
<g clip-path="url(#clip0)">
<path d="M3.65052 2.77799e-09C4.12424 -1.86242e-05 4.59328 0.0936365 5.03054 0.275558C5.4678 0.457479 5.86463 0.724063 6.19812 1.05992C6.53161 1.39577 6.79515 1.79424 6.97352 2.23233C7.15189 2.67041 7.24157 3.13942 7.23736 3.61229C7.22621 4.57237 6.83703 5.48951 6.15393 6.16546C5.47083 6.84141 4.54869 7.22186 3.58685 7.22458C3.11313 7.2246 2.64409 7.13094 2.20683 6.94902C1.76957 6.7671 1.37274 6.50051 1.03925 6.16466C0.705758 5.8288 0.44222 5.43033 0.263848 4.99225C0.0854757 4.55417 -0.00419685 4.08515 7.78348e-06 3.61229C0.0111558 2.6522 0.400343 1.73506 1.08344 1.05912C1.76654 0.383171 2.68868 0.00271855 3.65052 2.77799e-09V2.77799e-09Z" fill="white"/>
<path d="M6.69614 9.94702L6.54758 30H0.297134L0.456314 9.94702H6.69614Z" fill="white"/>
<path d="M22.5822 9.45973C28.9494 9.45973 30.0106 13.6017 30.0106 18.9936L29.9257 29.9894H23.6859L23.7602 20.2436C23.7602 17.9131 23.7602 14.947 20.5766 14.947C17.393 14.947 16.7987 17.4682 16.7775 20.1271L16.7032 30.0424H10.4528L10.612 9.94702H16.5865V12.6907H16.682C17.2856 11.6741 18.1516 10.838 19.1895 10.2697C20.2274 9.70137 21.3991 9.42164 22.5822 9.45973Z" fill="white"/>
</g>
<defs>
<clipPath id="clip0">
<rect width="30" height="30" fill="white"/>
</clipPath>
</defs>
</svg>
